<?xml version="1.0" encoding="utf-8"?>
<!-- Generator: Adobe Illustrator 27.5.0, SVG Export Plug-In . SVG Version: 6.00 Build 0)  -->
<svg version="1.1" id="Ñëîé_1" xmlns="http://www.w3.org/2000/svg" xmlns:xlink="http://www.w3.org/1999/xlink" x="0px" y="0px"
	 viewBox="0 0 2600 2000" style="enable-background:new 0 0 2600 2000;" xml:space="preserve">
<rect id="_x31_1" style="fill:#FFFFFF;" width="2600" height="2000"/>
<path id="_x31_0" style="fill:#A2C3F2;" d="M356.747,1849.333c0,0-257.064-825-49.064-1170s481-118,652-12s723.629-607.128,1133-507
	c462,113,241.241,679.162,126,909c-179,357,302,283,24.643,780H356.747z"/>
<g id="_x39_">
	<path style="fill:#5AA85A;" d="M769.832,1846.943c0,0-4.439-125.785,126.592-197.468
		c147.676-80.789,322.732,117.449,453.362,104.353c110.489-11.077,150.049-131.579,267.624-158.678
		c117.061-26.98,232.139,81.14,204.942,251.763L769.832,1846.943z"/>
	<path style="fill:#60BF60;" d="M773.567,1846.717c0,0-4.407-95.099,125.697-149.295c146.632-61.081,320.451,88.797,450.157,78.896
		c109.708-8.375,148.988-99.48,265.731-119.968c116.233-20.398,230.498,61.345,203.493,190.345L773.567,1846.717z"/>
	<path style="fill:#5AA85A;" d="M798.016,1846.782c0,0-4.202-57.084,119.838-89.616c139.797-36.664,305.514,53.301,429.175,47.358
		c104.594-5.027,142.044-59.714,253.346-72.012c110.815-12.244,219.754,36.823,194.008,114.256L798.016,1846.782z"/>
</g>
<g id="_x38_">
	<path style="fill:#60BF60;" d="M299.487,1848.518c0,0-171.443-254.148-115.102-297.096
		c56.341-42.948,235.062,187.279,235.062,187.279s-105.203-232.406-83.171-364.821c22.032-132.415,192.311,177.926,233.327,330.183
		c0,0-10.347-214.506,87.598-301.808c97.945-87.301,62.017,350.799,62.017,350.799s61.506-252.191,128.33-264.309
		c66.823-12.117-20.036,357.794-20.036,357.794L299.487,1848.518z"/>
	<path style="fill:#5AA85A;" d="M392.045,1849.817c-0.325,0-0.644-0.154-0.844-0.441l-170.535-245.111
		c-0.324-0.465-0.209-1.105,0.257-1.429c0.465-0.325,1.106-0.21,1.43,0.257l170.535,245.111c0.324,0.465,0.209,1.105-0.256,1.429
		C392.452,1849.757,392.248,1849.817,392.045,1849.817z"/>
	<path style="fill:#5AA85A;" d="M535.891,1848.66c-0.42,0-0.813-0.259-0.965-0.676l-164.132-450.767
		c-0.194-0.533,0.081-1.122,0.614-1.316c0.532-0.191,1.122,0.08,1.316,0.614l164.132,450.768c0.194,0.533-0.081,1.122-0.614,1.316
		C536.126,1848.639,536.008,1848.66,535.891,1848.66z"/>
	<path style="fill:#5AA85A;" d="M616.504,1848.358c-0.024,0-0.049-0.001-0.074-0.003c-0.566-0.039-0.992-0.531-0.952-1.096
		c11.547-163.81,58.771-390.044,59.247-392.31c0.117-0.555,0.663-0.904,1.216-0.794c0.555,0.117,0.91,0.661,0.794,1.217
		c-0.475,2.264-47.67,228.363-59.208,392.031C617.489,1847.944,617.038,1848.358,616.504,1848.358z"/>
	<path style="fill:#5AA85A;" d="M751.802,1848.358c-0.07,0-0.141-0.007-0.213-0.023c-0.555-0.117-0.91-0.661-0.793-1.217
		c15.463-73.421,82.696-308.549,83.373-310.915c0.156-0.546,0.723-0.861,1.27-0.704c0.546,0.156,0.861,0.725,0.705,1.27
		c-0.677,2.366-67.89,237.423-83.338,310.773C752.705,1848.025,752.277,1848.358,751.802,1848.358z"/>
</g>
<g id="_x37_">
	<path style="fill:#60BF60;" d="M2300.513,1848.518c0,0,171.443-254.148,115.102-297.096
		c-56.341-42.948-235.063,187.279-235.063,187.279s105.203-232.406,83.171-364.821s-192.312,177.926-233.327,330.183
		c0,0,10.347-214.506-87.598-301.808c-97.945-87.301-62.017,350.799-62.017,350.799s-61.506-252.191-128.33-264.309
		c-66.823-12.117,20.036,357.794,20.036,357.794L2300.513,1848.518z"/>
	<path style="fill:#5AA85A;" d="M2207.955,1849.817c-0.203,0-0.407-0.06-0.585-0.185c-0.466-0.324-0.581-0.964-0.257-1.429
		l170.534-245.111c0.323-0.467,0.965-0.581,1.429-0.257c0.466,0.324,0.581,0.964,0.257,1.429l-170.534,245.111
		C2208.6,1849.663,2208.28,1849.817,2207.955,1849.817z"/>
	<path style="fill:#5AA85A;" d="M2064.109,1848.66c-0.116,0-0.235-0.021-0.352-0.062c-0.533-0.194-0.807-0.784-0.614-1.317
		l164.132-450.767c0.195-0.533,0.783-0.808,1.317-0.614c0.533,0.194,0.807,0.784,0.614,1.316l-164.132,450.767
		C2064.922,1848.401,2064.528,1848.66,2064.109,1848.66z"/>
	<path style="fill:#5AA85A;" d="M1983.496,1848.358c-0.535,0-0.986-0.414-1.024-0.956
		c-11.538-163.669-58.732-389.767-59.208-392.031c-0.116-0.555,0.239-1.1,0.794-1.217c0.558-0.113,1.099,0.239,1.217,0.794
		c0.475,2.266,47.698,228.5,59.246,392.31c0.04,0.565-0.387,1.057-0.953,1.096
		C1983.545,1848.357,1983.521,1848.358,1983.496,1848.358z"/>
	<path style="fill:#5AA85A;" d="M1848.198,1848.358c-0.476,0-0.903-0.332-1.004-0.816c-15.448-73.35-82.661-308.407-83.338-310.773
		c-0.156-0.545,0.16-1.115,0.704-1.27c0.545-0.156,1.114,0.159,1.27,0.704c0.677,2.367,67.91,237.494,83.373,310.915
		c0.117,0.555-0.238,1.1-0.793,1.217C1848.338,1848.35,1848.267,1848.358,1848.198,1848.358z"/>
</g>
<g id="_x36_">
	<path style="fill:#A2C3F2;" d="M554.61,278.103c-2.61,0-5.167,0.224-7.66,0.634c0.238-1.914,0.375-3.859,0.375-5.838
		c0-25.865-20.968-46.832-46.832-46.832c-16.306,0-30.658,8.337-39.045,20.977c-3.431-22.485-22.851-39.71-46.294-39.71
		c-25.865,0-46.832,20.968-46.832,46.833c0,4.724,0.706,9.281,2.007,13.58c-0.666-0.028-1.334-0.051-2.007-0.051
		c-25.865,0-46.833,20.968-46.833,46.833c0,25.865,20.968,46.832,46.833,46.832c10.098,0,19.442-3.207,27.091-8.643
		c10.383,21.729,32.56,36.742,58.248,36.742c27.48,0,50.934-17.187,60.236-41.391c8.057,14.15,23.266,23.699,40.714,23.699
		c25.865,0,46.832-20.968,46.832-46.833C601.443,299.07,580.475,278.103,554.61,278.103z"/>
	<path style="fill:#FFFFFF;" d="M2068.904,525.901c2.248,0,4.45,0.192,6.597,0.546c-0.205-1.648-0.323-3.324-0.323-5.028
		c0-22.277,18.059-40.335,40.335-40.335c14.043,0,26.405,7.181,33.628,18.067c2.955-19.365,19.681-34.201,39.872-34.201
		c22.276,0,40.335,18.059,40.335,40.335c0,4.068-0.608,7.993-1.729,11.696c0.574-0.024,1.149-0.044,1.729-0.044
		c22.276,0,40.335,18.059,40.335,40.335c0,22.276-18.059,40.335-40.335,40.335c-8.697,0-16.745-2.762-23.332-7.444
		c-8.942,18.714-28.043,31.645-50.167,31.645c-23.668,0-43.867-14.802-51.879-35.649c-6.94,12.187-20.038,20.411-35.066,20.411
		c-22.276,0-40.335-18.059-40.335-40.335C2028.568,543.959,2046.627,525.901,2068.904,525.901z"/>
</g>
<g id="_x35__5_">
	
		<rect x="1060.007" y="1694.45" transform="matrix(-1 4.841652e-05 -4.841652e-05 -1 2884.3015 3540.8484)" style="fill:#FF593A;" width="764.202" height="152.019"/>
	<polygon style="fill:#F1F3F2;" points="1824.222,1846.446 1824.215,1694.437 1944.364,1741.742 2017.323,1770.462 
		1944.367,1799.19 	"/>
	<path style="fill:#3E8EDD;" d="M951.325,1770.478c-0.007-3.509,0.241-6.971,0.702-10.354c5.051-37.079,36.835-65.664,75.298-65.661
		l20.923,0.002l87.277-0.002l0.001,152.026l-87.277,0.002h-20.911C985.354,1846.493,951.327,1812.463,951.325,1770.478z"/>
	<path style="fill:#9B453A;" d="M1133.079,1744.145c0.164-1.202,1.195-2.128,2.441-2.129l688.587-0.028
		c1.362,0,2.466,1.104,2.466,2.464c0.005,1.366-1.104,2.465-2.464,2.466l-688.587,0.028c-1.362,0-2.466-1.104-2.466-2.464
		C1133.057,1744.368,1133.064,1744.255,1133.079,1744.145z"/>
	<path style="fill:#9B453A;" d="M1133.083,1796.205c0.164-1.202,1.195-2.128,2.442-2.129l688.694-0.028
		c1.362,0,2.466,1.104,2.466,2.464c0.008,1.357-1.104,2.466-2.464,2.466l-688.694,0.028c-1.362,0-2.466-1.104-2.466-2.464
		C1133.06,1796.428,1133.068,1796.315,1133.083,1796.205z"/>
	<path style="fill:#305777;" d="M1133.077,1694.129c0.164-1.202,1.195-2.128,2.441-2.129c1.362,0,2.466,1.104,2.466,2.464
		l0.007,152.018c0.004,1.361-1.104,2.465-2.464,2.466c-1.362,0-2.466-1.104-2.466-2.464l-0.007-152.018
		C1133.054,1694.351,1133.062,1694.238,1133.077,1694.129z"/>
	<path style="fill:#305777;" d="M1111.589,1694.129c0.164-1.202,1.195-2.128,2.441-2.129c1.362,0,2.466,1.104,2.466,2.464
		l0.007,152.019c0.001,1.347-1.102,2.465-2.464,2.466c-1.362,0-2.466-1.104-2.466-2.464l-0.007-152.019
		C1111.567,1694.352,1111.574,1694.24,1111.589,1694.129z"/>
	<path style="fill:#FFB12A;" d="M951.325,1770.478c-0.007-3.509,0.241-6.971,0.702-10.354c5.051-37.079,36.835-65.664,75.298-65.661
		l20.923,0.002l0.001,152.026h-20.911C985.354,1846.493,951.327,1812.463,951.325,1770.478z"/>
	<polygon style="fill:#FF593A;" points="1944.367,1799.19 1944.364,1741.742 2017.323,1770.462 	"/>
</g>
<g id="_x34_">
	<path style="fill:#F1F3F2;" d="M1949.647,318.963v759.213c0,58.647-47.541,106.202-106.202,106.202H815.776
		c-58.661,0-106.202-47.555-106.202-106.202V318.963c0-52.044,37.451-95.356,86.886-104.444c4.475-0.824,9.061-1.373,13.728-1.606
		c1.854-0.096,3.707-0.151,5.588-0.151h1027.669C1902.106,212.761,1949.647,260.316,1949.647,318.963z"/>
	<path style="fill:#FFB12A;" d="M1950.257,320.788v53.842H710.185v-53.842c0-58.647,47.541-106.202,106.202-106.202h1027.669
		C1902.716,214.587,1950.257,262.141,1950.257,320.788z"/>
	<path style="fill:#997243;" d="M1844.052,1193.063H816.383c-62.345,0-113.066-50.722-113.066-113.067V320.783
		c0-54.576,38.906-101.34,92.508-111.195c4.848-0.891,9.769-1.468,14.626-1.711c2.07-0.107,4.014-0.159,5.931-0.159h1027.669
		c62.345,0,113.066,50.721,113.066,113.066v759.213C1957.118,1142.341,1906.397,1193.063,1844.052,1193.063z M816.383,221.446
		c-1.679,0-3.391,0.046-5.233,0.141c-4.267,0.214-8.583,0.72-12.841,1.503c-47.088,8.657-81.263,49.743-81.263,97.693v759.213
		c0,54.775,44.563,99.338,99.337,99.338h1027.669c54.775,0,99.337-44.563,99.337-99.338V320.783
		c0-54.775-44.563-99.337-99.337-99.337H816.383z"/>
	<path style="fill:#F1F3F2;" d="M1822.611,323.643c-13.738,0-24.916-11.177-24.916-24.916c0-13.738,11.177-24.916,24.916-24.916
		c13.738,0,24.916,11.177,24.916,24.916C1847.526,312.466,1836.349,323.643,1822.611,323.643z M1822.611,287.54
		c-6.169,0-11.187,5.018-11.187,11.187c0,6.169,5.018,11.187,11.187,11.187c6.169,0,11.187-5.018,11.187-11.187
		C1833.798,292.559,1828.78,287.54,1822.611,287.54z"/>
	<path style="fill:#F1F3F2;" d="M1724.666,323.643c-13.738,0-24.916-11.177-24.916-24.916c0-13.738,11.177-24.916,24.916-24.916
		c13.738,0,24.916,11.177,24.916,24.916C1749.582,312.466,1738.404,323.643,1724.666,323.643z M1724.666,287.54
		c-6.169,0-11.187,5.018-11.187,11.187c0,6.169,5.018,11.187,11.187,11.187c6.169,0,11.187-5.018,11.187-11.187
		C1735.853,292.559,1730.835,287.54,1724.666,287.54z"/>
	<path style="fill:#F1F3F2;" d="M1626.721,323.643c-13.738,0-24.916-11.177-24.916-24.916c0-13.738,11.177-24.916,24.916-24.916
		c13.739,0,24.916,11.177,24.916,24.916C1651.636,312.466,1640.459,323.643,1626.721,323.643z M1626.721,287.54
		c-6.169,0-11.187,5.018-11.187,11.187c0,6.169,5.018,11.187,11.187,11.187c6.169,0,11.187-5.018,11.187-11.187
		C1637.908,292.559,1632.89,287.54,1626.721,287.54z"/>
</g>
<g id="_x33_">
	<path style="fill:#F1F3F2;" d="M1844.647,551.963v759.213c0,58.647-47.541,106.202-106.202,106.202H710.776
		c-58.661,0-106.202-47.555-106.202-106.202V551.963c0-52.044,37.451-95.356,86.886-104.444c4.475-0.824,9.061-1.373,13.728-1.606
		c1.854-0.096,3.707-0.151,5.588-0.151h1027.669C1797.106,445.761,1844.647,493.316,1844.647,551.963z"/>
	<path style="fill:#3E8EDD;" d="M1845.257,553.788v53.842H605.185v-53.842c0-58.647,47.541-106.202,106.202-106.202h1027.669
		C1797.716,447.587,1845.257,495.141,1845.257,553.788z"/>
	<path style="fill:#FFB12A;" d="M712.267,1352.718h445.405c23.977,0,43.413-19.437,43.413-43.413v-276.174
		c0-23.976-19.437-43.413-43.413-43.413H712.267c-23.976,0-43.413,19.437-43.413,43.413v276.174
		C668.854,1333.281,688.291,1352.718,712.267,1352.718z"/>
	<path style="fill:#F1F3F2;" d="M1181.086,1183.718v149h-486C695.086,1332.718,944.086,1183.718,1181.086,1183.718z"/>
	<path style="fill:#F1F3F2;" d="M959.854,1203.718c0,0-125-47-265-47v161C694.854,1317.718,809.854,1241.718,959.854,1203.718z"/>
	
		<ellipse transform="matrix(0.8885 -0.4588 0.4588 0.8885 -392.7552 584.7533)" style="fill:#F1F3F2;" cx="1007.088" cy="1100.696" rx="31.83" ry="31.83"/>
	<path style="fill:#305777;" d="M1739.052,1426.063H711.383c-62.345,0-113.066-50.722-113.066-113.067V553.783
		c0-54.576,38.906-101.34,92.508-111.195c4.848-0.891,9.769-1.468,14.626-1.711c2.07-0.107,4.014-0.159,5.931-0.159h1027.669
		c62.345,0,113.066,50.721,113.066,113.066v759.213C1852.118,1375.341,1801.397,1426.063,1739.052,1426.063z M711.383,454.446
		c-1.679,0-3.391,0.046-5.233,0.141c-4.267,0.214-8.583,0.72-12.841,1.503c-47.088,8.657-81.263,49.743-81.263,97.693v759.213
		c0,54.775,44.563,99.338,99.337,99.338h1027.669c54.775,0,99.337-44.563,99.337-99.338V553.783
		c0-54.775-44.563-99.337-99.337-99.337H711.383z"/>
	<path style="fill:#F1F3F2;" d="M1717.611,556.643c-13.738,0-24.916-11.177-24.916-24.916c0-13.738,11.177-24.916,24.916-24.916
		c13.738,0,24.916,11.177,24.916,24.916C1742.526,545.466,1731.349,556.643,1717.611,556.643z M1717.611,520.54
		c-6.169,0-11.187,5.018-11.187,11.187c0,6.169,5.018,11.187,11.187,11.187c6.169,0,11.187-5.018,11.187-11.187
		C1728.798,525.559,1723.78,520.54,1717.611,520.54z"/>
	<path style="fill:#F1F3F2;" d="M1619.666,556.643c-13.738,0-24.916-11.177-24.916-24.916c0-13.738,11.177-24.916,24.916-24.916
		c13.738,0,24.916,11.177,24.916,24.916C1644.582,545.466,1633.404,556.643,1619.666,556.643z M1619.666,520.54
		c-6.169,0-11.187,5.018-11.187,11.187c0,6.169,5.018,11.187,11.187,11.187c6.169,0,11.187-5.018,11.187-11.187
		C1630.853,525.559,1625.835,520.54,1619.666,520.54z"/>
	<path style="fill:#F1F3F2;" d="M1521.721,556.643c-13.738,0-24.916-11.177-24.916-24.916c0-13.738,11.177-24.916,24.916-24.916
		c13.739,0,24.916,11.177,24.916,24.916C1546.636,545.466,1535.459,556.643,1521.721,556.643z M1521.721,520.54
		c-6.169,0-11.187,5.018-11.187,11.187c0,6.169,5.018,11.187,11.187,11.187c6.169,0,11.187-5.018,11.187-11.187
		C1532.908,525.559,1527.89,520.54,1521.721,520.54z"/>
	<path style="fill:#FFB12A;" d="M1736.954,1352.718h-445.406c-23.976,0-43.413-19.437-43.413-43.413v-276.174
		c0-23.976,19.437-43.413,43.413-43.413h445.406c23.976,0,43.413,19.437,43.413,43.413v276.174
		C1780.367,1333.281,1760.93,1352.718,1736.954,1352.718z"/>
	<circle style="fill:#FF593A;" cx="1514.251" cy="1171.218" r="119.5"/>
	<path style="fill:#F1F3F2;" d="M1572.263,1161.972l-90.856-42.753c-6.777-3.189-14.569,1.756-14.569,9.246v85.506
		c0,7.49,7.792,12.435,14.569,9.246l90.856-42.753C1580.086,1176.782,1580.086,1165.653,1572.263,1161.972z"/>
	<path style="fill:#FF593A;" d="M871.674,936.718H698.87c-16.422,0-29.734-13.313-29.734-29.734V696.95
		c0-16.422,13.313-29.734,29.734-29.734h172.805c16.422,0,29.734,13.313,29.734,29.734v210.034
		C901.409,923.405,888.096,936.718,871.674,936.718z"/>
	<rect x="733.023" y="749.718" style="fill:#F1F3F2;" width="104.498" height="104.498"/>
	<path style="fill:#FF593A;" d="M1171.633,940.717h-20v-8h20V940.717z M1131.633,940.717h-20v-8h20V940.717z M1091.633,940.717h-20
		v-8h20V940.717z M1051.633,940.717h-20v-8h20V940.717z M1011.633,940.717h-12.805c-2.731,0-5.449-0.328-8.078-0.974l1.91-7.769
		c2.005,0.493,4.08,0.743,6.168,0.743h12.805V940.717z M1185.471,937.756l-3.285-7.294c5.288-2.381,9.667-6.533,12.33-11.691
		l7.108,3.671C1198.135,929.198,1192.398,934.637,1185.471,937.756z M972.107,927.577c-4.588-5.946-7.014-13.067-7.014-20.594v-0.47
		h8v0.47c0,5.742,1.849,11.173,5.347,15.706L972.107,927.577z M1205.367,901.138h-8v-20h8V901.138z M973.093,886.513h-8v-20h8
		V886.513z M1205.367,861.138h-8v-20h8V861.138z M973.093,846.513h-8v-20h8V846.513z M1205.367,821.138h-8v-20h8V821.138z
		 M973.093,806.513h-8v-20h8V806.513z M1205.367,781.138h-8v-20h8V781.138z M973.093,766.513h-8v-20h8V766.513z M1205.367,741.138
		h-8v-20h8V741.138z M973.093,726.513h-8v-20h8V726.513z M1205.367,701.138h-8v-4.188c0.001-4.597-1.225-9.107-3.544-13.042
		l6.893-4.062c3.044,5.166,4.652,11.081,4.651,17.104V701.138z M974.654,688.1l-7.513-2.751c2.61-7.127,7.625-13.237,14.122-17.206
		l4.17,6.827C980.473,678,976.644,682.663,974.654,688.1z M1180.865,672.919c-2.941-1.131-6.047-1.704-9.232-1.704h-9.09v-8h9.09
		c4.17,0,8.242,0.753,12.103,2.237L1180.865,672.919z M1142.543,671.215h-20v-8h20V671.215z M1102.543,671.215h-20v-8h20V671.215z
		 M1062.543,671.215h-20v-8h20V671.215z M1022.543,671.215h-20v-8h20V671.215z"/>
	<path style="fill:#FFB12A;" d="M1486.407,783.74h-24.101c-0.872-4.547-2.067-8.977-3.552-13.273l20.869-12.048
		c4.976-2.873,6.68-9.235,3.807-14.211l-7.89-13.665c-2.873-4.976-9.235-6.68-14.21-3.808l-20.891,12.062
		c-3.003-3.461-6.246-6.704-9.707-9.708l12.062-20.891c2.873-4.975,1.168-11.338-3.808-14.21l-13.665-7.89
		c-4.976-2.873-11.338-1.168-14.211,3.808l-12.049,20.869c-4.296-1.486-8.726-2.68-13.273-3.553V683.12
		c0-5.745-4.657-10.403-10.403-10.403h-15.779c-5.745,0-10.403,4.657-10.403,10.403v24.101c-4.547,0.872-8.977,2.066-13.273,3.552
		l-12.049-20.869c-2.873-4.976-9.235-6.68-14.21-3.808l-13.666,7.89c-4.976,2.873-6.68,9.235-3.808,14.21l12.062,20.891
		c-3.461,3.003-6.704,6.246-9.707,9.707l-20.891-12.062c-4.976-2.873-11.338-1.168-14.21,3.808l-7.89,13.665
		c-2.873,4.976-1.168,11.338,3.807,14.211l20.869,12.048c-1.486,4.296-2.68,8.726-3.553,13.273h-24.101
		c-5.745,0-10.403,4.657-10.403,10.403v15.78c0,5.745,4.657,10.403,10.403,10.403h24.101c0.872,4.547,2.067,8.977,3.553,13.273
		l-20.869,12.049c-4.976,2.872-6.68,9.235-3.807,14.21l7.89,13.666c2.873,4.976,9.235,6.68,14.21,3.808l20.891-12.062
		c3.003,3.461,6.246,6.704,9.707,9.707l-12.062,20.891c-2.873,4.976-1.168,11.338,3.808,14.211l13.666,7.89
		c4.975,2.873,11.338,1.168,14.21-3.807l12.049-20.869c4.296,1.486,8.726,2.681,13.273,3.553v24.101
		c0,5.745,4.657,10.403,10.403,10.403h15.779c5.745,0,10.403-4.657,10.403-10.403v-24.101c4.547-0.872,8.977-2.067,13.273-3.553
		l12.049,20.869c2.873,4.975,9.235,6.68,14.211,3.807l13.665-7.89c4.976-2.873,6.681-9.235,3.808-14.211l-12.062-20.891
		c3.461-3.003,6.704-6.246,9.707-9.707l20.891,12.062c4.975,2.873,11.338,1.168,14.21-3.808l7.89-13.666
		c2.873-4.976,1.168-11.338-3.807-14.21l-20.869-12.049c1.486-4.296,2.68-8.726,3.552-13.273h24.101
		c5.745,0,10.403-4.657,10.403-10.403v-15.78C1496.81,788.398,1492.152,783.74,1486.407,783.74z M1367.494,865.033
		c-34.794,0-63-28.206-63-63s28.206-63,63-63c34.794,0,62.999,28.206,62.999,63S1402.288,865.033,1367.494,865.033z"/>
	<path style="fill:#3E8EDD;" d="M1760.33,719.256h-202.605c-10.911,0-19.757-8.846-19.757-19.757s8.846-19.756,19.757-19.756
		h202.605c10.911,0,19.756,8.845,19.756,19.756S1771.241,719.256,1760.33,719.256z"/>
	<path style="fill:#3E8EDD;" d="M1760.33,787.74h-202.605c-10.911,0-19.757-8.846-19.757-19.756
		c0-10.911,8.846-19.757,19.757-19.757h202.605c10.911,0,19.756,8.846,19.756,19.757
		C1780.086,778.895,1771.241,787.74,1760.33,787.74z"/>
	<path style="fill:#3E8EDD;" d="M1760.33,856.225h-202.605c-10.911,0-19.757-8.846-19.757-19.756
		c0-10.911,8.846-19.757,19.757-19.757h202.605c10.911,0,19.756,8.846,19.756,19.757
		C1780.086,847.38,1771.241,856.225,1760.33,856.225z"/>
	<path style="fill:#3E8EDD;" d="M1760.33,924.709h-202.605c-10.911,0-19.757-8.846-19.757-19.756
		c0-10.911,8.846-19.757,19.757-19.757h202.605c10.911,0,19.756,8.845,19.756,19.757
		C1780.086,915.864,1771.241,924.709,1760.33,924.709z"/>
</g>
<g id="_x32_">
	<path style="fill:#305777;" d="M989.263,924.874c0,0,29.576,6.899,54.321,42.228C1043.584,967.103,999.397,970.578,989.263,924.874
		z"/>
	<path style="fill:#F69D85;" d="M1038.483,916.472c-11.568-4.708-23.766-7.009-31.885,2.48l-94.337,110.251l-119.043-98.396
		c-0.727-0.597-1.528-1.204-2.319-1.745c-14.515-9.92-34.323-6.195-44.242,8.32c-9.92,14.515-6.195,34.323,8.32,44.242
		l145.888,99.704l1.134,0.777c9.899,6.717,23.472,4.953,31.287-4.433l130.8-155.955
		C1064.086,921.718,1039.086,916.718,1038.483,916.472z"/>
	<path style="fill:#3E8EDD;" d="M748.086,907.718c0,0,61.241-7.392,157.522,99.642l83.655-82.485c0,0,12.116,30.655,54.321,42.228
		c0,0-68.877,136.666-123.61,143.746c-65.752,8.504-145.738-57.385-145.738-57.385L748.086,907.718z"/>
	<path style="fill:#305777;" d="M918.4,1025.005c-0.306-0.014-0.596-0.179-0.76-0.465c-4.25-7.459-12.623-16.461-12.706-16.551
		c-0.348-0.372-0.328-0.956,0.044-1.303c0.373-0.347,0.957-0.328,1.303,0.044c0.349,0.374,8.603,9.247,12.962,16.897
		c0.252,0.442,0.097,1.005-0.345,1.257C918.741,1024.975,918.568,1025.013,918.4,1025.005z"/>
	<path style="fill:#305777;" d="M1034.55,984.901c-0.09-0.004-0.182-0.021-0.271-0.052c-46.393-16.228-58.024-46.331-58.136-46.633
		c-0.177-0.478,0.074-1.006,0.562-1.181c0.487-0.171,1.027,0.074,1.206,0.552c0.109,0.294,11.495,29.609,56.997,45.524
		c0.49,0.172,0.745,0.699,0.572,1.179C1035.337,984.682,1034.953,984.92,1034.55,984.901z"/>
	<path style="fill:#305777;" d="M1027.344,998.594c-0.045-0.002-0.09-0.007-0.136-0.017c-44.427-8.733-62.247-49.379-62.421-49.788
		c-0.201-0.469,0.017-1.01,0.486-1.21c0.467-0.201,1.01,0.018,1.209,0.485c0.171,0.401,17.633,40.162,61.082,48.703
		c0.499,0.098,0.825,0.583,0.727,1.082C1028.201,998.305,1027.792,998.616,1027.344,998.594z"/>
	<path style="fill:#F69D85;" d="M611.306,1536.343c-21.536,95.497-35.215,169.102-61.711,263.292
		c-17.769,37.763-94.285,39.985-83.256,0.608c20.523-92.511,50.611-186.827,74.161-278.604
		C540.5,1521.638,612.108,1533.147,611.306,1536.343z"/>
	<path style="fill:#F69D85;" d="M801.179,1536.505l-26.548,262.811c-17.769,37.763-94.286,39.985-83.256,0.608l33.365-278.115
		L801.179,1536.505z"/>
	<path style="fill:#606A97;" d="M686.886,1838.297c0.453,1.704,1.207,3.276,2.203,4.656c2.47,3.432,6.43,5.674,10.916,5.677
		l102.593-0.098c5.107,0,8.98-2.953,10.917-6.893c0.598-1.196,1.01-2.492,1.219-3.827c0.635-4.005-0.537-8.344-4.064-11.531
		l-36.037-26.966c-47.453,7.302-82.777-4.45-82.777-4.45l-1.073,5.076c-2.364,11.185-3.822,22.543-4.359,33.963l0,0
		C686.35,1835.43,686.511,1836.905,686.886,1838.297z"/>
	<path style="fill:#404D7F;" d="M686.886,1838.297c1.567,5.933,6.827,10.327,13.119,10.333l102.593-0.098
		c6.661-0.005,11.234-5.018,12.135-10.72L686.886,1838.297z"/>
	<path style="fill:#30313C;" d="M655,1270l19.086,506.718c0,0,61,18,123-1l34-509L655,1270z"/>
	<path style="fill:#606A97;" d="M461.85,1838.616c0.453,1.704,1.207,3.276,2.203,4.656c2.47,3.432,6.43,5.674,10.916,5.677
		l102.593-0.098c5.107,0,8.98-2.953,10.917-6.893c0.597-1.196,1.01-2.492,1.219-3.827c0.635-4.005-0.537-8.344-4.064-11.531
		l-36.037-26.966c-47.453,7.302-82.776-4.45-82.776-4.45l-1.073,5.076c-2.364,11.185-3.822,22.543-4.359,33.963l0,0
		C461.314,1835.749,461.476,1837.223,461.85,1838.616z"/>
	<path style="fill:#404D7F;" d="M461.85,1838.616c1.567,5.933,6.827,10.327,13.119,10.333l102.593-0.098
		c6.661-0.005,11.234-5.018,12.135-10.72L461.85,1838.616z"/>
	<path style="fill:#30313C;" d="M551,1253c0,0-68.235,409.286-89.72,518.596c0,0,46.582,19.627,110.332,9.337L725,1279L551,1253z"/>
	<path style="fill:#3E8EDD;" d="M665.867,906.937c0,0-78.704,7.504-121.739,91.285c-38.989,75.905-62.514,161.719-40.048,190.595
		c32.415,41.662,207.824,30.712,207.824,30.712s-11.718-37.597,8.902-64.041c0,0-99.728-21.789-119.795-25.307
		c0,0,39.887-85.409,47.984-117.073C654.58,991.271,665.867,906.937,665.867,906.937z"/>
	<rect x="682.18" y="836.75" style="fill:#F69D85;" width="50.768" height="82.221"/>
	<path style="fill:#D1836B;" d="M691.647,877.856c21.371,11.188,41.3,8.902,41.3,8.902v-15.926L691.647,877.856z"/>
	<path style="fill:#F69D85;" d="M726.806,879.745L726.806,879.745c28.236-8.761,44.252-39.512,35.772-68.685l-7.97-27.419
		c-8.48-29.172-38.244-45.719-66.48-36.958h0c-28.236,8.761-44.251,39.512-35.772,68.685l7.97,27.419
		C668.806,871.959,698.57,888.506,726.806,879.745z"/>
	<path style="fill:#F69D85;" d="M746.442,806.485c2.253,7.749,10.159,12.145,17.66,9.818c7.501-2.327,11.755-10.496,9.502-18.245
		c-2.253-7.749-10.159-12.145-17.66-9.818C748.444,790.567,744.19,798.735,746.442,806.485z"/>
	<path style="fill:#F69D85;" d="M706.025,1206.749h3.081c46.891,0,84.903-39.273,84.903-87.719V984.717
		c0-48.446-38.013-87.719-84.903-87.719h-3.081c-39.155,0-84.903,39.273-84.903,87.719v134.313
		C621.122,1167.476,659.134,1206.749,706.025,1206.749z"/>
	<path style="fill:#3E8EDD;" d="M732.95,900.507c0,0,56.524,13.979,75.618,84.265c20.261,74.579,38.435,170.81,34.432,280.835
		c-0.406,11.168-8.787,20.439-19.857,21.974c-27.594,3.828-82.026,10.136-141.057,10.137c-40.873,0-95.962-8.848-121.086-13.718
		c-16.018-3.105-19.327-19.738-18-36c2.719-33.334,9.336-84.592,20-137c14.547-71.492,28.831-179.975,119.181-210.49
		C682.181,900.51,711.184,922.121,732.95,900.507z"/>
	<path style="fill:#305777;" d="M682.18,894.924l-16.312,12.013c0,0,15.407,14.915,37.882,14.915
		c25.227,0,44.651-15.068,44.651-15.068l-15.453-11.859c0,0-15.438,9.039-32.081,7.549
		C689.789,901.482,682.18,894.924,682.18,894.924z"/>
	<path style="fill:#5E3628;" d="M773.808,740.482c-15.943-14.883-31.792-6.012-46.674-15.814
		c-10.956-7.217-42.348-14.682-60.066-2.425c-14.012,9.693-17.303,23.743-17.375,34.614c-30.663,11.827-13.37,49.636-2.82,72.279
		c10.549,22.643,25.069,34.891,25.069,34.891c48.462,25.885,80.427-27.261,78.351-51.102c-2.076-23.84,5.651-24.686,5.651-24.686
		C785.179,788.31,789.981,755.58,773.808,740.482z"/>
	<path style="fill:#3E8EDD;" d="M1127.047,955.76l-163.158-68.786c-14.048-5.923-20.635-22.112-14.712-36.16l68.786-163.158
		c5.923-14.048,22.112-20.635,36.16-14.713l163.158,68.786c14.048,5.922,20.635,22.112,14.712,36.16l-68.786,163.158
		C1157.285,955.096,1141.095,961.683,1127.047,955.76z"/>
	
		<ellipse transform="matrix(0.9555 -0.295 0.295 0.9555 -177.8573 368.0918)" style="fill:#F1F3F2;" cx="1131.123" cy="773.559" rx="31.83" ry="31.83"/>
	<path style="fill:#F1F3F2;" d="M962.722,865.773c0,0,105.644-44.513,214.831-5.84l-34.512,81.861L962.722,865.773z"/>
	<path style="fill:#F1F3F2;" d="M1004.734,766.124c0,0,55.108,14.299,106.247,70.449c0,0-74.385-10.77-143.895,18.145
		L1004.734,766.124z"/>
	<path style="fill:#F69D85;" d="M1008.785,933.575c0.616,1.865,2.195,3.35,4.26,3.75c3.038,0.587,14.453-0.868,15.041-3.906
		l-0.103-43.841c0.588-3.039-1.4-5.977-4.438-6.565c-3.038-0.587-5.55,1.514-6.565,4.438c-8.188,23.573-8.335,39.402-8.335,39.402
		C1008.457,927.826,1008.495,932.697,1008.785,933.575z"/>
	<path style="fill:#305777;" d="M546.894,1211.395c-0.042,0-0.085-0.003-0.128-0.008c-0.548-0.07-0.935-0.57-0.866-1.118
		c0.178-1.395,18.142-140.488,51.48-229.593c0.194-0.517,0.77-0.779,1.287-0.586c0.517,0.193,0.779,0.77,0.586,1.287
		c-33.257,88.889-51.191,227.752-51.369,229.143C547.821,1211.025,547.39,1211.395,546.894,1211.395z"/>
	<path style="fill:#64656E;" d="M662.982,1482.938c-0.524,0-0.964-0.407-0.997-0.938l-7.983-127.938
		c-0.034-0.552,0.385-1.026,0.935-1.061c0.559-0.032,1.026,0.384,1.06,0.936l7.983,127.938c0.034,0.552-0.385,1.026-0.936,1.061
		C663.024,1482.938,663.003,1482.938,662.982,1482.938z"/>
	<path style="fill:#64656E;" d="M545.706,1762.933c-42.773,0-80.134-11.854-80.6-12.004c-0.525-0.17-0.814-0.733-0.645-1.259
		c0.169-0.525,0.733-0.812,1.259-0.646c0.578,0.187,58.41,18.526,112.321,9.334c0.543-0.092,1.062,0.273,1.154,0.817
		c0.093,0.544-0.273,1.061-0.818,1.153C567.479,1762.188,556.42,1762.933,545.706,1762.933z"/>
	<path style="fill:#64656E;" d="M740.587,1763.612c-36.836,0-67.047-6.569-67.499-6.669c-0.539-0.12-0.879-0.654-0.759-1.193
		c0.12-0.539,0.65-0.875,1.193-0.76c0.675,0.149,68.121,14.805,124.224,0.043c0.533-0.14,1.081,0.179,1.222,0.712
		c0.14,0.534-0.179,1.081-0.713,1.222C779.32,1761.95,759.115,1763.612,740.587,1763.612z"/>
	<path style="fill:#305777;" d="M831.588,1091.137c-0.188,0-0.378-0.053-0.546-0.163c-0.478-0.313-48.071-31.766-71.915-74.486
		c-0.27-0.482-0.097-1.092,0.386-1.36c0.482-0.27,1.091-0.098,1.36,0.386c23.607,42.296,70.79,73.478,71.264,73.787
		c0.462,0.303,0.592,0.922,0.29,1.385C832.234,1090.978,831.915,1091.137,831.588,1091.137z"/>
</g>
<path id="_x31_" style="fill:#30313C;" d="M2335.183,1851.333h-2077c-1.105,0-2-0.896-2-2s0.895-2,2-2h2077c1.104,0,2,0.896,2,2
	S2336.287,1851.333,2335.183,1851.333z"/>
</svg>
