<?xml version="1.0" encoding="utf-8"?>
<!-- Generator: Adobe Illustrator 27.5.0, SVG Export Plug-In . SVG Version: 6.00 Build 0)  -->
<svg version="1.1" xmlns="http://www.w3.org/2000/svg" xmlns:xlink="http://www.w3.org/1999/xlink" x="0px" y="0px"
	 viewBox="0 0 500 500" style="enable-background:new 0 0 500 500;" xml:space="preserve">
<g id="Background_Simple">
	<g>
		<path style="fill:#C6FF00;" d="M77,100c0,0-21,12-24,42s30,72,35,110s-35,47-19,95s100,59,145,40s66-67,133-67s115-31,111-100
			s-19-90-73-130S143,32,77,100z"/>
		<path style="opacity:0.7;fill:#FFFFFF;" d="M77,100c0,0-21,12-24,42s30,72,35,110s-35,47-19,95s100,59,145,40s66-67,133-67
			s115-31,111-100s-19-90-73-130S143,32,77,100z"/>
	</g>
</g>
<g id="Shadow">
</g>
<g id="Window">
	<g>
		<g>
			<path style="fill:#C6FF00;stroke:#263238;stroke-width:1.501;stroke-miterlimit:10;" d="M82.502,88.308v219.051
				c0,5.403,4.38,9.783,9.783,9.783h310.309c5.403,0,9.783-4.38,9.783-9.783V88.308c0-5.403-4.38-9.783-9.783-9.783H92.285
				C86.882,78.524,82.502,82.904,82.502,88.308z"/>
			
				<rect x="88.673" y="101.444" style="fill:#FFFFFF;stroke:#263238;stroke-width:1.501;stroke-miterlimit:10;" width="317.532" height="201.066"/>
			<g>
				
					<line style="fill:none;stroke:#263238;stroke-linecap:round;stroke-linejoin:round;stroke-miterlimit:10;" x1="105.277" y1="259.956" x2="199.746" y2="259.956"/>
				
					<line style="fill:none;stroke:#263238;stroke-linecap:round;stroke-linejoin:round;stroke-miterlimit:10;" x1="120.918" y1="269.34" x2="199.746" y2="269.34"/>
				
					<line style="fill:none;stroke:#263238;stroke-linecap:round;stroke-linejoin:round;stroke-miterlimit:10;" x1="105.277" y1="269.34" x2="112.784" y2="269.34"/>
				
					<line style="fill:none;stroke:#263238;stroke-linecap:round;stroke-linejoin:round;stroke-miterlimit:10;" x1="105.277" y1="278.724" x2="199.746" y2="278.724"/>
				
					<line style="fill:none;stroke:#263238;stroke-linecap:round;stroke-linejoin:round;stroke-miterlimit:10;" x1="192.865" y1="288.109" x2="199.746" y2="288.109"/>
				
					<line style="fill:none;stroke:#263238;stroke-linecap:round;stroke-linejoin:round;stroke-miterlimit:10;" x1="105.277" y1="288.109" x2="184.731" y2="288.109"/>
			</g>
			<g>
				<g>
					<path style="fill:#263238;" d="M107.907,191.309c-3.135,0-5.686-2.551-5.686-5.686v-62.056c0-3.135,2.551-5.686,5.686-5.686
						h216.962c3.135,0,5.686,2.551,5.686,5.686v62.056c0,3.135-2.551,5.686-5.686,5.686H107.907z"/>
					<path style="fill:#263238;" d="M324.869,118.38c2.864,0,5.186,2.322,5.186,5.186v62.056c0,2.864-2.322,5.186-5.186,5.186
						H107.907c-2.864,0-5.186-2.322-5.186-5.186v-62.056c0-2.864,2.322-5.186,5.186-5.186H324.869 M324.869,117.38H107.907
						c-3.411,0-6.186,2.775-6.186,6.186v62.056c0,3.411,2.775,6.186,6.186,6.186h216.961c3.411,0,6.186-2.775,6.186-6.186v-62.056
						C331.055,120.155,328.28,117.38,324.869,117.38L324.869,117.38z"/>
				</g>
				<g>
					<path style="fill:#C6FF00;" d="M284.424,118.38c-1.945,2.015-4.57,3.371-7.485,3.659c-3.92,0.388-7.5-1.097-9.97-3.659h-5.214
						c0.048,0.079,0.089,0.163,0.138,0.241l-1.921,1.921c-0.735,0.735-0.735,1.926,0,2.661l2.488,2.488
						c0.735,0.735,1.926,0.735,2.661,0l1.921-1.921c1.522,0.956,3.212,1.666,5.017,2.078v2.716c0,1.039,0.842,1.882,1.882,1.882
						h3.519c1.039,0,1.882-0.842,1.882-1.882v-2.716c1.805-0.412,3.495-1.122,5.016-2.078l1.921,1.921
						c0.735,0.735,1.927,0.735,2.661,0l2.488-2.488c0.735-0.735,0.735-1.926,0-2.661l-1.921-1.921
						c0.049-0.078,0.09-0.162,0.138-0.241H284.424z"/>
					<path style="fill:#C6FF00;" d="M195.357,189.875h-2.716c-0.412-1.805-1.122-3.495-2.078-5.017l1.921-1.921
						c0.735-0.735,0.735-1.926,0-2.661l-2.488-2.488c-0.735-0.735-1.926-0.735-2.661,0l-1.921,1.921
						c-1.522-0.956-3.212-1.666-5.017-2.078v-2.716c0-1.039-0.842-1.882-1.882-1.882h-3.519c-1.039,0-1.882,0.843-1.882,1.882v2.716
						c-1.805,0.412-3.495,1.122-5.017,2.078l-1.921-1.921c-0.735-0.735-1.926-0.735-2.661,0l-2.488,2.488
						c-0.735,0.735-0.735,1.926,0,2.661l1.921,1.921c-0.956,1.522-1.666,3.212-2.078,5.017h-2.716c-0.692,0-1.29,0.377-1.617,0.933
						h8.393c1.14-4.985,5.407-8.855,10.587-9.368c6.308-0.625,11.744,3.588,13.063,9.368h8.394
						C196.647,190.253,196.049,189.875,195.357,189.875z"/>
					<path style="fill:#C6FF00;" d="M105.515,168.266h3.519c1.039,0,1.882-0.842,1.882-1.882v-2.716
						c1.805-0.412,3.495-1.122,5.017-2.079l1.921,1.921c0.735,0.735,1.926,0.735,2.661,0l2.488-2.488
						c0.735-0.735,0.735-1.926,0-2.661l-1.921-1.921c0.956-1.522,1.666-3.212,2.078-5.017h2.716c1.039,0,1.882-0.843,1.882-1.882
						v-3.519c0-1.039-0.842-1.882-1.882-1.882h-2.716c-0.412-1.805-1.122-3.495-2.078-5.017l1.921-1.921
						c0.735-0.735,0.735-1.926,0-2.661l-2.488-2.488c-0.735-0.735-1.926-0.735-2.661,0l-1.921,1.921
						c-1.522-0.956-3.212-1.666-5.017-2.078v-2.716c0-1.039-0.842-1.882-1.882-1.882h-3.519c-1.039,0-1.882,0.842-1.882,1.882v2.716
						c-0.309,0.071-0.61,0.162-0.912,0.249v4.392c1.044-0.426,2.155-0.717,3.315-0.831c7.676-0.76,14.075,5.638,13.315,13.315
						c-0.563,5.681-5.157,10.275-10.838,10.838c-2.063,0.204-4.027-0.122-5.791-0.838v4.398c0.302,0.088,0.603,0.179,0.912,0.249
						v2.716C103.633,167.423,104.475,168.266,105.515,168.266z"/>
				</g>
			</g>
			
				<rect x="188.098" y="84.731" style="fill:#FFFFFF;stroke:#263238;stroke-width:1.501;stroke-miterlimit:10;" width="157.756" height="9.658"/>
			<g>
				
					<polyline style="fill:none;stroke:#263238;stroke-width:1.501;stroke-linecap:round;stroke-linejoin:round;stroke-miterlimit:10;" points="
					96.309,83.188 91.757,87.571 96.478,92.629 				"/>
				
					<line style="fill:none;stroke:#263238;stroke-width:1.501;stroke-linecap:round;stroke-linejoin:round;stroke-miterlimit:10;" x1="91.757" y1="87.571" x2="101.872" y2="87.571"/>
			</g>
			<g>
				
					<polyline style="fill:none;stroke:#263238;stroke-width:1.501;stroke-linecap:round;stroke-linejoin:round;stroke-miterlimit:10;" points="
					122.103,83.188 126.655,87.571 121.934,92.629 				"/>
				
					<line style="fill:none;stroke:#263238;stroke-width:1.501;stroke-linecap:round;stroke-linejoin:round;stroke-miterlimit:10;" x1="126.655" y1="87.571" x2="116.54" y2="87.571"/>
			</g>
			<g>
				
					<path style="fill:none;stroke:#263238;stroke-width:1.501;stroke-linecap:round;stroke-linejoin:round;stroke-miterlimit:10;" d="
					M148.386,86.981c-0.494-1.98-2.501-3.625-4.633-3.625c-2.514,0-4.552,2.038-4.552,4.552s2.038,4.552,4.552,4.552
					c1.094,0,2.098-0.386,2.882-1.029"/>
				
					<polyline style="fill:none;stroke:#263238;stroke-width:1.501;stroke-linecap:round;stroke-linejoin:round;stroke-miterlimit:10;" points="
					145.321,87.493 148.862,87.493 148.862,83.282 				"/>
			</g>
			<g>
				
					<polygon style="fill:none;stroke:#263238;stroke-width:1.501;stroke-linecap:round;stroke-linejoin:round;stroke-miterlimit:10;" points="
					172.499,86 168.3,82.601 164.302,86 164.302,93.397 172.499,93.397 				"/>
				<rect x="166.701" y="87.999" style="fill:#263238;" width="3.199" height="5.132"/>
				
					<line style="fill:none;stroke:#263238;stroke-width:1.501;stroke-linecap:round;stroke-linejoin:round;stroke-miterlimit:10;" x1="164.302" y1="86" x2="161.903" y2="88.199"/>
				
					<line style="fill:none;stroke:#263238;stroke-width:1.501;stroke-linecap:round;stroke-linejoin:round;stroke-miterlimit:10;" x1="172.499" y1="86" x2="174.757" y2="88.005"/>
			</g>
			<g>
				
					<line style="fill:none;stroke:#263238;stroke-width:1.501;stroke-linecap:round;stroke-linejoin:round;stroke-miterlimit:10;" x1="389.48" y1="86.501" x2="402.132" y2="86.501"/>
				
					<line style="fill:none;stroke:#263238;stroke-width:1.501;stroke-linecap:round;stroke-linejoin:round;stroke-miterlimit:10;" x1="389.48" y1="89.354" x2="402.132" y2="89.354"/>
				
					<line style="fill:none;stroke:#263238;stroke-width:1.501;stroke-linecap:round;stroke-linejoin:round;stroke-miterlimit:10;" x1="389.48" y1="92.207" x2="402.132" y2="92.207"/>
				
					<line style="fill:none;stroke:#263238;stroke-width:1.501;stroke-linecap:round;stroke-linejoin:round;stroke-miterlimit:10;" x1="389.48" y1="95.06" x2="402.132" y2="95.06"/>
			</g>
		</g>
		<path style="fill:#C6FF00;" d="M412.377,143.811H206.378c-4.203,0-7.61,3.407-7.61,7.61v57.208c0,4.203,3.407,7.61,7.61,7.61
			h205.999V143.811z"/>
	</g>
</g>
<g id="Plants">
	<g>
		<path style="fill:#C6FF00;" d="M399.676,287.839c-0.349-13.044,0.661-35.293-10.78-44.451
			c-10.049-8.043-17.859,2.875-20.675,11.675c-6.837,21.366-3.624,44.95-3.609,66.963c0,0.337-0.003,0.675-0.014,1.012
			c-0.54,16.224-2.488,33.789-0.715,49.987c0,0-1.738-16.227-14.488-9.272c-12.75,6.954,6.375,43.464,6.375,43.464
			s-15.068-11.011-22.022-1.739c-6.954,9.272,8.693,19.704,8.693,19.704s-14.488-4.057-14.488,0c0,4.057,4.636,7.534,17.965,9.272
			h71.861c0,0,11.59-6.375,9.272-13.329c-2.318-6.954-14.488-2.898-14.488-2.898s18.545-22.601,17.386-32.453
			c-1.159-9.852-24.919,1.739-24.919,1.739s18.544-46.941,15.068-67.804c-2.739-16.433-15.496-5.185-22.441,1.128
			C399.285,309.926,399.971,298.869,399.676,287.839z"/>
		<path style="opacity:0.5;fill:#FFFFFF;" d="M399.676,287.839c-0.349-13.044,0.661-35.293-10.78-44.451
			c-10.049-8.043-17.859,2.875-20.675,11.675c-6.837,21.366-3.624,44.95-3.609,66.963c0,0.337-0.003,0.675-0.014,1.012
			c-0.54,16.224-2.488,33.789-0.715,49.987c0,0-1.738-16.227-14.488-9.272c-12.75,6.954,6.375,43.464,6.375,43.464
			s-15.068-11.011-22.022-1.739c-6.954,9.272,8.693,19.704,8.693,19.704s-14.488-4.057-14.488,0c0,4.057,4.636,7.534,17.965,9.272
			h71.861c0,0,11.59-6.375,9.272-13.329c-2.318-6.954-14.488-2.898-14.488-2.898s18.545-22.601,17.386-32.453
			c-1.159-9.852-24.919,1.739-24.919,1.739s18.544-46.941,15.068-67.804c-2.739-16.433-15.496-5.185-22.441,1.128
			C399.285,309.926,399.971,298.869,399.676,287.839z"/>
		
			<line style="fill:none;stroke:#FFFFFF;stroke-width:1.727;stroke-linecap:round;stroke-linejoin:round;stroke-miterlimit:10;" x1="376.632" y1="433.875" x2="381.848" y2="274.506"/>
		
			<line style="fill:none;stroke:#FFFFFF;stroke-width:1.727;stroke-linecap:round;stroke-linejoin:round;stroke-miterlimit:10;" x1="379.529" y1="367.229" x2="406.767" y2="341.731"/>
		
			<line style="fill:none;stroke:#FFFFFF;stroke-width:1.727;stroke-linecap:round;stroke-linejoin:round;stroke-miterlimit:10;" x1="392.279" y1="355.639" x2="398.074" y2="339.413"/>
		
			<line style="fill:none;stroke:#FFFFFF;stroke-width:1.727;stroke-linecap:round;stroke-linejoin:round;stroke-miterlimit:10;" x1="356.928" y1="386.933" x2="377.791" y2="409.535"/>
		
			<line style="fill:none;stroke:#FFFFFF;stroke-width:1.727;stroke-linecap:round;stroke-linejoin:round;stroke-miterlimit:10;" x1="412.562" y1="399.683" x2="377.791" y2="417.648"/>
		
			<line style="fill:none;stroke:#FFFFFF;stroke-width:1.727;stroke-linecap:round;stroke-linejoin:round;stroke-miterlimit:10;" x1="394.017" y1="410.114" x2="406.767" y2="409.535"/>
	</g>
</g>
<g id="Character">
	<g>
		<ellipse style="fill:#C6FF00;" cx="265.682" cy="439.155" rx="175.209" ry="8.966"/>
		<ellipse style="opacity:0.3;fill:#FFFFFF;" cx="265.682" cy="439.155" rx="175.209" ry="8.966"/>
	</g>
	<g>
		<path style="fill:#263238;" d="M271.123,433.001c-0.832,0.006-1.642,0.215-2.377,0.605c-1.249,0.663-6.649,2.144-10.126,3.378
			c-5.434,1.929-9.666,0.888-9.228,2.307c0.439,1.419,8.904,4.271,13.806,4.341c4.902,0.07,7.259-1.157,9.606-1.105
			c2.347,0.051,0.613,1.178,4.511,1.62c3.898,0.442,5.176,0.451,6.537-1.68c1.362-2.131,2.125-2.678,1.696-5.374
			c-0.004-0.027-0.009-0.054-0.013-0.08c-0.401-2.397-2.555-4.103-4.985-4.085L271.123,433.001z"/>
		<path style="fill:#263238;" d="M301.469,430.404c-0.724-0.021-1.424,0.176-2.05,0.572c-1.066,0.672-5.721,2.085-8.708,3.296
			c-4.669,1.894-8.391,0.632-7.961,2.173c0.43,1.541,5.432,3.632,9.705,3.872c4.273,0.239,4.873-0.143,6.921-0.256
			c4.614-0.256,1.673,1.377,3.332,2.051c1.065,0.432,2.236,0.441,3.589,0.513c4.87,0.256,5.467,0.643,6.582-1.605
			c1.115-2.248,1.762-2.811,1.297-5.726c-0.005-0.029-0.009-0.058-0.014-0.087c-0.429-2.592-2.364-4.501-4.48-4.563L301.469,430.404
			z"/>
		<g>
			<path style="fill:#263238;stroke:#263238;stroke-miterlimit:10;" d="M257.884,278.101c0,0,0.84,29.401,0.84,39.271
				c0,9.87,2.52,54.472,5.88,70.643c3.36,16.171,5.25,39.271,5.25,41.791c0,2.52-0.84,3.15,0.84,4.83
				c1.68,1.68,7.98,4.83,10.29,3.78c2.31-1.05,3.57-5.04,3.57-5.04s0-21.841,0.63-36.121c0.63-14.28-0.42-32.971-0.42-32.971
				s8.19,37.801,10.5,45.362c2.31,7.56,4.202,21.276,4.622,24.006c0.42,2.73,2.266,2.819,4.614,2.819
				c2.82,0,6.305-0.364,7.565-2.464c1.26-2.1-1.47-24.151-1.47-32.971c0-8.82-6.93-63.503-6.3-76.943
				c0.63-13.44,4.62-36.751,3.36-43.681c-1.26-6.93-1.26-12.463-1.26-12.463S263.134,262.981,257.884,278.101z"/>
			<path style="fill:none;stroke:#FFFFFF;stroke-miterlimit:10;" d="M260.414,281.398c0,0,1.251,4.683,2.721,7.623
				c1.47,2.94,3.78,3.99,3.78,3.99"/>
			<path style="fill:none;stroke:#FFFFFF;stroke-miterlimit:10;" d="M274.01,427.421c0.333,5.241-0.165,8.897-0.165,8.897"/>
			<path style="fill:none;stroke:#FFFFFF;stroke-miterlimit:10;" d="M267.75,311.888c0.59,22.861,1.713,61.748,2.734,71.087
				c1.133,10.355,2.141,26.194,2.832,35.802"/>
			<path style="fill:none;stroke:#FFFFFF;stroke-miterlimit:10;" d="M266.841,281.725c-0.21,0.63,0.493,13.177,0.493,13.177
				s0.095,4.238,0.261,10.876"/>
		</g>
		<path style="fill:#FFFFFF;stroke:#263238;stroke-miterlimit:10;" d="M208.743,198.856c0,0-0.21-5.04,0.84-3.78
			c1.05,1.26,1.26,3.57,1.68,5.88c0,0,0.63-4.41,1.26-3.15c0.63,1.26,0.84,2.73,0.63,5.04c-0.21,2.31,0.63,5.67,1.47,6.93
			C215.463,211.036,210.213,207.466,208.743,198.856z"/>
		<path style="fill:#FFFFFF;stroke:#263238;stroke-linecap:round;stroke-linejoin:round;stroke-miterlimit:10;" d="M366.802,205.445
			c0,0,2.991-4.062,1.416-3.604c-1.575,0.458-3.04,2.256-4.68,3.937c0,0,1.943-4.009,0.716-3.316
			c-1.227,0.693-2.223,1.794-3.34,3.827c-1.117,2.033-3.692,4.35-5.093,4.925C354.421,211.789,360.77,211.763,366.802,205.445z"/>
		<path style="fill:#FFFFFF;stroke:#263238;stroke-linecap:round;stroke-linejoin:round;stroke-miterlimit:10;" d="M370.023,138.372
			v-2.534c0-0.748-0.607-1.355-1.355-1.355h-1.956c-0.297-1.3-0.808-2.517-1.497-3.613l1.383-1.383c0.529-0.529,0.529-1.387,0-1.916
			l-1.792-1.792c-0.529-0.529-1.387-0.529-1.917,0l-1.383,1.383c-1.096-0.688-2.313-1.2-3.613-1.497v-1.956
			c0-0.748-0.607-1.355-1.355-1.355h-2.534c-0.749,0-1.355,0.607-1.355,1.355v1.956c-1.3,0.297-2.517,0.808-3.613,1.497
			l-1.383-1.383c-0.529-0.529-1.387-0.529-1.917,0l-1.792,1.792c-0.529,0.529-0.529,1.387,0,1.916l1.383,1.383
			c-0.688,1.096-1.2,2.313-1.497,3.613h-1.956c-0.748,0-1.355,0.607-1.355,1.355v2.534c0,0.748,0.607,1.355,1.355,1.355h1.956
			c0.297,1.3,0.808,2.517,1.497,3.613l-1.383,1.383c-0.529,0.529-0.529,1.387,0,1.916l1.792,1.792c0.529,0.529,1.387,0.529,1.917,0
			l1.383-1.383c1.096,0.689,2.313,1.2,3.613,1.497v1.956c0,0.748,0.607,1.355,1.355,1.355h2.534c0.748,0,1.355-0.607,1.355-1.355
			v-1.956c1.3-0.297,2.517-0.808,3.613-1.497l1.383,1.383c0.529,0.529,1.387,0.529,1.917,0l1.792-1.792
			c0.529-0.529,0.529-1.387,0-1.916l-1.383-1.383c0.688-1.096,1.2-2.313,1.497-3.613h1.956
			C369.416,139.727,370.023,139.121,370.023,138.372z M355.863,142.871c-3.665,0.363-6.72-2.692-6.357-6.357
			c0.269-2.712,2.462-4.906,5.174-5.174c3.665-0.363,6.72,2.692,6.357,6.357C360.769,140.409,358.575,142.602,355.863,142.871z"/>
		<path style="fill:#FFFFFF;stroke:#263238;stroke-linecap:round;stroke-linejoin:round;stroke-miterlimit:10;" d="M248.306,208.458
			v-2.534c0-0.749-0.607-1.355-1.355-1.355h-1.956c-0.297-1.3-0.808-2.517-1.497-3.613l1.383-1.383c0.529-0.529,0.529-1.387,0-1.917
			l-1.792-1.792c-0.529-0.529-1.387-0.529-1.917,0l-1.383,1.383c-1.096-0.689-2.313-1.2-3.613-1.497v-1.956
			c0-0.748-0.607-1.355-1.355-1.355h-2.534c-0.749,0-1.355,0.607-1.355,1.355v1.956c-1.3,0.297-2.517,0.808-3.613,1.497
			l-1.383-1.383c-0.529-0.529-1.387-0.529-1.917,0l-1.792,1.792c-0.529,0.529-0.529,1.387,0,1.917l1.383,1.383
			c-0.689,1.096-1.2,2.313-1.497,3.613h-1.956c-0.748,0-1.355,0.607-1.355,1.355v2.534c0,0.748,0.607,1.355,1.355,1.355h1.956
			c0.297,1.3,0.808,2.517,1.497,3.613l-1.383,1.383c-0.529,0.529-0.529,1.387,0,1.917l1.792,1.792c0.529,0.529,1.387,0.529,1.917,0
			l1.383-1.383c1.096,0.689,2.313,1.2,3.613,1.497v1.956c0,0.749,0.607,1.355,1.355,1.355h2.534c0.748,0,1.355-0.607,1.355-1.355
			v-1.956c1.3-0.297,2.517-0.808,3.613-1.497l1.383,1.383c0.529,0.529,1.387,0.529,1.917,0l1.792-1.792
			c0.529-0.529,0.529-1.387,0-1.917l-1.383-1.383c0.689-1.096,1.2-2.313,1.497-3.613h1.956
			C247.699,209.813,248.306,209.206,248.306,208.458z M234.165,213.146c-3.786,0.375-6.941-2.781-6.566-6.566
			c0.277-2.801,2.543-5.067,5.345-5.344c3.786-0.375,6.941,2.78,6.566,6.566C239.233,210.602,236.967,212.868,234.165,213.146z"/>
		<path style="fill:#FFFFFF;stroke:#263238;stroke-linecap:round;stroke-linejoin:round;stroke-miterlimit:10;" d="M423.206,208.381
			H211.093c-4.203,0-7.61-3.407-7.61-7.61v-57.208c0-4.203,3.407-7.61,7.61-7.61h212.113c4.203,0,7.61,3.407,7.61,7.61v57.208
			C430.816,204.974,427.409,208.381,423.206,208.381z"/>
		<g>
			
				<line style="fill:none;stroke:#263238;stroke-linecap:round;stroke-linejoin:round;stroke-miterlimit:10;" x1="423.721" y1="154.992" x2="218.515" y2="154.992"/>
			
				<line style="fill:none;stroke:#263238;stroke-linecap:round;stroke-linejoin:round;stroke-miterlimit:10;" x1="423.721" y1="170.862" x2="218.515" y2="170.862"/>
			
				<line style="fill:none;stroke:#263238;stroke-linecap:round;stroke-linejoin:round;stroke-miterlimit:10;" x1="423.721" y1="186.732" x2="218.515" y2="186.732"/>
		</g>
		<path style="fill:#FFFFFF;stroke:#263238;stroke-miterlimit:10;" d="M224.27,220.686c0,0-2.468-2.109-2.772-2.991
			c-0.304-0.882-0.341-2.251-1.205-4.124c-0.864-1.873-4.048-3.538-5.033-5.764c-0.986-2.226-2.324-6.107-3.017-6.854
			c-0.693-0.748-1.665-0.413-2.028,1.687c-0.363,2.099,3.589,7.249,3.832,7.955c0.243,0.705-4.107-0.557-6.903-2.356
			s-4.523-5.545-6.213-7.923c-1.69-2.378-3.074-0.716-3.037,0.653c0.037,1.369,5.096,9.098,6.07,11.92
			c0.974,2.822,4.195,5.856,6.031,7.394c1.836,1.538,5.748,2.162,5.748,2.162l2.65,2.639L224.27,220.686z"/>
		<g>
			<path style="fill:#C6FF00;stroke:#263238;stroke-linecap:round;stroke-linejoin:round;stroke-miterlimit:10;" d="
				M216.723,231.617l-3.57-7.77c0,0,1.68-2.94,6.09-3.78c4.41-0.84,5.04,0,5.04,0l2.31,7.98
				C226.593,228.047,219.033,228.677,216.723,231.617z"/>
			<g>
				<path style="fill:#C6FF00;stroke:#263238;stroke-linecap:round;stroke-linejoin:round;stroke-miterlimit:10;" d="
					M251.374,204.946c0,0-10.71,30.661-12.18,34.651c-0.383,1.04-1.113,2.701-2.011,4.642c-1.874-3.253-5.951-10.425-7.23-13.462
					c-1.68-3.99-3.99-5.04-7.77-4.62c-3.78,0.42-7.14,4.41-7.14,7.351c0.004,5.576,4.924,13.017,7.107,17.973
					c2.336,5.303,3.909,7.275,7.863,11.706c5.011,5.615,10.67,3.672,14.493-1.79c2.94-4.2,10.438-19.489,10.438-19.489
					S253.054,209.777,251.374,204.946z"/>
				<path style="fill:none;stroke:#263238;stroke-linecap:round;stroke-linejoin:round;stroke-miterlimit:10;" d="M237.183,244.24
					c0,0-4.141,5.948-4.535,9.096"/>
			</g>
		</g>
		<path style="fill:#FFFFFF;stroke:#263238;stroke-linecap:round;stroke-linejoin:round;stroke-miterlimit:10;" d="M340.917,216.773
			c0,0,2.928-1.402,3.45-2.175c0.521-0.773,0.91-2.087,2.228-3.674c1.318-1.587,4.824-2.374,6.35-4.271
			c1.526-1.896,3.821-5.3,4.683-5.844c0.862-0.544,1.715,0.031,1.524,2.153c-0.19,2.122-5.337,6.079-5.754,6.697
			c-0.417,0.619,4.851-1.211,8.106-0.538c3.255,0.674,7.112-0.791,9.984-1.305c2.872-0.514,2.696,1.642,1.711,2.593
			c-0.985,0.951-10.009,2.926-12.681,4.258c-2.672,1.333-5.037,2.372-7.207,3.384c-2.17,1.013-4.608,2.618-4.608,2.618l-3.241,1.866
			L340.917,216.773z"/>
		<g>
			<path style="fill:#C6FF00;stroke:#263238;stroke-miterlimit:10;" d="M348.042,228.48l3.57-7.77c0,0-1.68-2.94-6.09-3.78
				c-4.41-0.84-5.04,0-5.04,0l-2.31,7.98C338.171,224.91,345.732,225.54,348.042,228.48z"/>
			<path style="fill:#C6FF00;stroke:#263238;stroke-linecap:round;stroke-linejoin:round;stroke-miterlimit:10;" d="M342.581,223.02
				c-3.78-0.42-6.09,0.63-7.77,4.62c-1.279,3.038-5.355,10.21-7.23,13.462c-0.897-1.941-1.627-3.602-2.011-4.642
				c-1.47-3.99-12.18-34.651-12.18-34.651c-1.68,4.83-3.57,36.961-3.57,36.961s8.04,15.282,10.981,19.486
				c1.728,2.471,3.099,4.759,6.266,5.232c9.326,1.394,12.112-7.381,14.978-13.858c1.811-4.094,3.617-8.194,5.298-12.344
				c0.812-2.004,2.378-4.688,2.378-6.917C349.721,227.43,346.361,223.44,342.581,223.02z"/>
			<path style="fill:none;stroke:#263238;stroke-linecap:round;stroke-linejoin:round;stroke-miterlimit:10;" d="M327.581,241.103
				c0,0,4.201,5.938,4.988,9.085"/>
		</g>
		<g>
			<g>
				<path style="fill:#FFFFFF;stroke:#263238;stroke-miterlimit:10;" d="M267.965,148.665c0,0-2.94,10.92-2.31,11.97
					c0.63,1.05,2.1,0.63,1.26,2.73c-0.84,2.1-2.73,6.09-2.31,7.77c0.42,1.68,2.73,2.94,2.73,2.94s1.05,7.56,2.1,9.03
					c1.05,1.47,6.72,0.63,6.72,0.63l0.42,5.67l16.801-1.05l-0.63-10.08l-0.84-31.081L267.965,148.665z"/>
				<path style="fill:#263238;" d="M269.503,163.789c0,0.847-0.312,1.533-0.697,1.533c-0.385,0-0.697-0.686-0.697-1.533
					c0-0.847,0.312-1.533,0.697-1.533C269.191,162.256,269.503,162.943,269.503,163.789z"/>
			</g>
			<path style="fill:#C6FF00;" d="M276.155,183.736l0.42,5.67l16.801-1.05l-0.63-10.08l-0.354-13.08
				c-2.187,0.049-4.194,0.09-4.808,0.09c-1.538,0-4.87-0.256-5.639,0c-0.769,0.256-1.794,0.513-1.794,0.513l-3.845,4.101
				c0,0,0.256,5.383-1.538,8.202c-1.502,2.36-5.434,3.292-5.657,4.357c0.107,0.266,0.215,0.496,0.324,0.647
				c0.193,0.156,0.416,0.313,0.652,0.472C271.909,184.363,276.155,183.736,276.155,183.736z"/>
		</g>
		<g>
			<path style="fill:#FFFFFF;stroke:#263238;stroke-miterlimit:10;" d="M288.125,140.264c-1.038,0.16-9.03,0-15.33,1.05
				c-6.3,1.05-8.19,1.47-7.98,4.2s-0.42,3.78,1.89,4.83c2.31,1.05,3.15,1.05,3.15,1.05s-0.63,2.94-0.84,5.04
				c-0.21,2.1,3.57,4.41,3.57,4.41s-0.21,3.15,0.21,4.2c0.42,1.05,1.47,1.26,2.1,0.42c0.63-0.84,1.05-4.83,1.68-3.15
				c0.63,1.68,3.15,14.281,4.83,15.751c1.68,1.47,9.24,0.63,11.34,0.21c2.1-0.42,6.09-9.24,7.98-14.49
				c1.89-5.25,1.05-14.491-1.68-18.691C296.315,140.894,290.855,139.844,288.125,140.264z"/>
			<path style="fill:#263238;" d="M299.689,146.268c-0.747,2.029-1.514,4.5-3.647,4.664c-3.332,0.256-3.332-4.101-5.639-5.639
				c-2.307-1.538,1.538,7.69-0.256,5.126c-1.794-2.563-6.408-5.126-10.509-5.383c-4.101-0.256,2.307,7.433,0.769,7.433
				c-1.538,0-4.101-4.87-4.101-6.152c0-1.282-3.845-1.282-8.202-1.282s-2.563,2.563-2.563,4.101c0,0.233,0.07,0.44,0.18,0.627
				c0.248,0.2,0.567,0.39,0.984,0.58c2.31,1.05,3.15,1.05,3.15,1.05s-0.63,2.94-0.84,5.04c-0.21,2.1,3.57,4.41,3.57,4.41
				s-0.21,3.15,0.21,4.2c0.42,1.05,1.47,1.26,2.1,0.42c0.63-0.84,1.05-4.83,1.68-3.15c0.63,1.68,3.15,14.281,4.83,15.751
				c1.68,1.47,9.24,0.63,11.34,0.21c2.1-0.42,6.09-9.24,7.98-14.491C302.456,158.977,301.892,150.833,299.689,146.268z"/>
		</g>
		<path style="fill:#C6FF00;stroke:#263238;stroke-miterlimit:10;" d="M272.585,188.776l-4.62,8.4c0,0,11.55-3.36,17.851-3.36
			s13.23,1.26,13.23,1.26l-2.94-8.19C296.105,186.886,280.145,185.206,272.585,188.776z"/>
		<g>
			<g>
				<path style="fill:#C6FF00;stroke:#263238;stroke-miterlimit:10;" d="M269.645,196.126c0,0-7.56,3.99-11.97,6.09
					c-4.41,2.1-6.3,2.73-6.3,2.73s5.25,66.855,5.25,70.425s-0.21,3.78,1.05,4.83c1.26,1.05,7.778,1.533,19.329,1.323
					c11.55-0.21,26.033-2.583,27.083-2.583c1.05,0,2.94-0.63,4.2-2.52c1.26-1.89,5.25-73.155,5.46-73.995
					c0.21-0.84-13.86-6.93-15.331-7.35C296.945,194.656,288.545,188.986,269.645,196.126z"/>
			</g>
			<path style="fill:none;stroke:#263238;stroke-linecap:round;stroke-linejoin:round;stroke-miterlimit:10;" d="M295.102,249.649
				c-1.31,1.188-2.718,2.297-4.232,3.293"/>
			<path style="fill:none;stroke:#263238;stroke-linecap:round;stroke-linejoin:round;stroke-miterlimit:10;" d="M310.54,222.257
				c0,0-2.919,12.894-11.437,23.186"/>
		</g>
		<path style="fill:#FFFFFF;stroke:#263238;stroke-miterlimit:10;" d="M274.768,162.21c0,0,0.513,3.588,0.513,5.895
			s-1.538,3.589-0.513,4.614c1.025,1.025,1.794,0.513,2.563-1.282c0.769-1.794,1.282-4.87,1.025-6.664
			C278.1,162.979,277.844,159.134,274.768,162.21z"/>
	</g>
	<polyline style="fill:none;stroke:#FFFFFF;stroke-miterlimit:10;" points="286.083,370.436 291.713,312.879 300.472,302.243 	"/>
</g>
</svg>
